<?xml version="1.0" encoding="utf-8"?>
<!DOCTYPE svg PUBLIC "-//W3C//DTD SVG 1.1//EN" "http://www.w3.org/Graphics/SVG/1.1/DTD/svg11.dtd">
<svg version="1.1" xmlns="http://www.w3.org/2000/svg" xmlns:xlink="http://www.w3.org/1999/xlink" x="0px" y="0px" viewBox="0 0 1000 1000" enable-background="new 0 0 1000 1000" xml:space="preserve">
<metadata> Svg Vector Icons : http://www.onlinewebfonts.com/icon </metadata>
<g><path fill="#fff" d="M500,786.1c-3.9,0-7.9-1.4-11.1-4.2c-7-6.1-7.7-16.7-1.5-23.7l473.2-538.7c6.1-7,16.7-7.7,23.7-1.5c7,6.1,7.7,16.7,1.5,23.7L512.6,780.4C509.3,784.2,504.6,786.1,500,786.1z"/><path fill="#fff" d="M500,786.1c-4.7,0-9.3-1.9-12.6-5.7L14.2,241.8c-6.1-7-5.4-17.6,1.5-23.7c7-6.1,17.6-5.4,23.7,1.5l473.2,538.7c6.1,7,5.4,17.6-1.5,23.7C507.9,784.8,503.9,786.1,500,786.1z"/></g>
</svg>